# xmcd
#
# Track frame offsets: 
#        150
#        58138
#        81821
#        111605
#        144675
#        163031
#        183413
#        195719
#        213783
#        239175
#        271241
#        291078
#        307314
#
# Disc length: 4378 seconds
#
# Revision: 0
# Processed by: cddbd v1.5.2PL0 Copyright (c) Steve Scherf et al.
# Submitted via: ExactAudioCopy v0.99pb5
#
DISCID=d211180d
DTITLE=Stevie Ray Vaughan - Harling's Upstairs Disc 2
DYEAR=1981
DGENRE=
TTITLE0=01 I'm Leaving You
TTITLE1=02 Hideaway
TTITLE2=03 In The Open
TTITLE3=04 The Sky Is Cryin'
TTITLE4=05 Tell Me
TTITLE5=06 Crosscut Saw
TTITLE6=07 Love Struck Baby
TTITLE7=08 Close To You
TTITLE8=09 May I Have A Talk With You
TTITLE9=10 Lost Your Good Thing Now
TTITLE10=11 Oh Yeah
TTITLE11=12 Wham
TTITLE12=13 Collins Shuffle
EXTD=
EXTT0=
EXTT1=
EXTT2=
EXTT3=
EXTT4=
EXTT5=
EXTT6=
EXTT7=
EXTT8=
EXTT9=
EXTT10=
EXTT11=
EXTT12=
PLAYORDER=
